<svg xmlns="http://www.w3.org/2000/svg" width="21.13" height="21.13" viewBox="0 0 21.13 21.13">
  <g id="active" transform="translate(0)">
    <path id="Path_4317" data-name="Path 4317" d="M21.314,13.187l-.894-.919a.192.192,0,0,0-.142-.061h0a.184.184,0,0,0-.142.061l-6.2,6.242-2.255-2.255a.2.2,0,0,0-.284,0l-.9.9a.2.2,0,0,0,0,.29l2.844,2.844a.9.9,0,0,0,.594.29.943.943,0,0,0,.589-.279h.005l6.791-6.827A.217.217,0,0,0,21.314,13.187Z" transform="translate(-5.335 -5.827)" fill="#22af3f"/>
    <path id="Path_4318" data-name="Path 4318" d="M13.94,4.8A9.139,9.139,0,1,1,7.474,7.474,9.082,9.082,0,0,1,13.94,4.8m0-1.422A10.565,10.565,0,1,0,24.5,13.94,10.563,10.563,0,0,0,13.94,3.375Z" transform="translate(-3.376 -3.375)" fill="#22af3f"/>
  </g>
</svg>
