<svg xmlns="http://www.w3.org/2000/svg" width="55" height="55" viewBox="0 0 55 55">
  <g id="delete-icon" transform="translate(-3.375 -3.375)">
    <path id="Path_4561" data-name="Path 4561" d="M32.921,29.938,25.954,22.97,32.921,16a2.113,2.113,0,0,0-2.988-2.988l-6.968,6.968L16,13.015A2.113,2.113,0,0,0,13.01,16l6.968,6.968L13.01,29.938a2.043,2.043,0,0,0,0,2.988,2.1,2.1,0,0,0,2.988,0l6.968-6.968,6.968,6.968a2.123,2.123,0,0,0,2.988,0A2.1,2.1,0,0,0,32.921,29.938Z" transform="translate(7.909 7.905)" fill="#ec1541"/>
    <path id="Path_4562" data-name="Path 4562" d="M30.875,7.077A23.8,23.8,0,0,1,47.706,47.706,23.8,23.8,0,0,1,14.044,14.044,23.641,23.641,0,0,1,30.875,7.077m0-3.7a27.5,27.5,0,1,0,27.5,27.5,27.5,27.5,0,0,0-27.5-27.5Z" fill="#ec1541"/>
  </g>
</svg>
