<svg xmlns="http://www.w3.org/2000/svg" width="18.652" height="17.812" viewBox="0 0 18.652 17.812">
  <path id="create-user-icon" d="M15.239,10.995a3.407,3.407,0,1,1-3.4,3.4,3.407,3.407,0,0,1,3.4-3.4Zm-2.716-.266.038.023-.073.056.035-.079Zm-1.308,5.74H0c0-5.007,2.932-3.83,5.918-5.74.728,1.95,3.707,2.379,5.476,1.285a4.526,4.526,0,0,0-.179,4.455Zm-4.4-5.918A1.585,1.585,0,0,1,6.966,10a2.265,2.265,0,0,1-.891-1.654h-.05A.654.654,0,0,1,5.7,8.257a.886.886,0,0,1-.355-.432c-.164-.376-.294-1.366.118-1.649L5.39,6.124l-.009-.109c-.015-.2-.02-.44-.023-.693-.015-.932-.035-1.751-.783-1.973l-.326-.1.211-.261a12.069,12.069,0,0,1,1.88-1.9A4.786,4.786,0,0,1,8.511.032a2.608,2.608,0,0,1,2.111.59,4,4,0,0,1,.566.567,2.4,2.4,0,0,1,1.69.989,3.446,3.446,0,0,1,.551,1.111,3.825,3.825,0,0,1,.152,1.258A2.338,2.338,0,0,1,12.7,6.28a.634.634,0,0,1,.273.071.681.681,0,0,1,.241.833c-.086.249-.19.552-.287.8-.118.335-.291.4-.624.361a2.233,2.233,0,0,1-.91,1.719l.112.407c-.325,1.575-3.771,1.745-4.7.086Zm7.807,2.235c0-.182-.018-.313.208-.3l.733.009c.237,0,.3.073.3.294v1h.994c.184,0,.314-.017.3.209l-.009.721c0,.237-.074.3-.3.3h-1v1c0,.222-.059.3-.3.294l-.733.009c-.226,0-.209-.126-.208-.3v-1h-.985c-.223,0-.3-.059-.3-.3l-.009-.733c0-.226.127-.209.3-.209h1v-1Z" transform="translate(0 0.002)" fill="#fff" fill-rule="evenodd"/>
</svg>
