<svg xmlns="http://www.w3.org/2000/svg" width="17.994" height="20.565" viewBox="0 0 17.994 20.565">
  <path id="event" d="M.482,7.712h17.03a.483.483,0,0,1,.482.482V18.637a1.928,1.928,0,0,1-1.928,1.928H1.928A1.928,1.928,0,0,1,0,18.637V8.194A.483.483,0,0,1,.482,7.712ZM17.994,5.944V4.5a1.928,1.928,0,0,0-1.928-1.928H14.138V.482A.483.483,0,0,0,13.656,0H12.05a.483.483,0,0,0-.482.482V2.571H6.426V.482A.483.483,0,0,0,5.944,0H4.338a.483.483,0,0,0-.482.482V2.571H1.928A1.928,1.928,0,0,0,0,4.5V5.944a.483.483,0,0,0,.482.482h17.03A.483.483,0,0,0,17.994,5.944Z"/>
</svg>
