<svg xmlns="http://www.w3.org/2000/svg" width="40.426" height="46.2" viewBox="0 0 40.426 46.2">
  <path id="events" d="M39.342,14.438H1.083A1.083,1.083,0,0,1,0,13.355V10.106A4.331,4.331,0,0,1,4.331,5.775H8.663V1.083A1.083,1.083,0,0,1,9.745,0h3.609a1.083,1.083,0,0,1,1.083,1.083V5.775h11.55V1.083A1.083,1.083,0,0,1,27.07,0H30.68a1.083,1.083,0,0,1,1.083,1.083V5.775h4.331a4.331,4.331,0,0,1,4.331,4.331v3.248A1.083,1.083,0,0,1,39.342,14.438ZM1.083,17.325h38.26a1.083,1.083,0,0,1,1.083,1.083V41.869A4.331,4.331,0,0,1,36.094,46.2H4.331A4.331,4.331,0,0,1,0,41.869V18.408A1.083,1.083,0,0,1,1.083,17.325Zm30.075,8.658L28.616,23.42a1.083,1.083,0,0,0-1.531-.006l-9.568,9.491-4.149-4.183a1.083,1.083,0,0,0-1.531-.006L9.274,31.259a1.083,1.083,0,0,0-.006,1.531L16.721,40.3a1.083,1.083,0,0,0,1.531.006l12.9-12.8a1.083,1.083,0,0,0,.006-1.531Z" fill="#fff"/>
</svg>
