<svg width="272" height="109" viewBox="0 0 272 109" fill="none" xmlns="http://www.w3.org/2000/svg">
<path d="M0.5 108.6H212.24V0H0.5V108.6Z" fill="black"/>
<path d="M5.20312 4.70398H207.535V103.898H5.20312V4.70398Z" fill="white"/>
<path d="M28.6123 16.3021L174.645 36.826L137.571 93.9164L272 16.3021H28.6123Z" fill="#F00F00"/>
<path d="M52.031 84.0782C51.1611 84.078 50.3029 83.8773 49.5231 83.4918C48.7433 83.1063 48.0628 82.5463 47.5344 81.8552C47.006 81.1642 46.644 80.3607 46.4764 79.5071C46.3087 78.6535 46.34 77.7728 46.5678 76.9332L55.3689 44.0886C55.8477 42.3212 56.8942 40.7602 58.3473 39.646C59.8004 38.5319 61.5795 37.9263 63.4106 37.9225H78.5384C79.4082 37.9228 80.2663 38.1236 81.046 38.5091C81.8257 38.8947 82.5061 39.4547 83.0344 40.1458C83.5627 40.8368 83.9247 41.6402 84.0923 42.4938C84.2599 43.3473 84.2286 44.228 84.0008 45.0675L75.2005 77.9121C74.7214 79.6795 73.6747 81.2404 72.2215 82.3546C70.7683 83.4687 68.9892 84.0744 67.158 84.0782H52.031ZM65.5977 75.5267C65.9905 75.5293 66.3734 75.403 66.6876 75.167C67.0018 74.9311 67.2298 74.5986 67.3368 74.2205L74.5172 47.4212C74.551 47.3111 74.5584 47.1946 74.5387 47.0811C74.519 46.9676 74.4728 46.8603 74.4039 46.7681C74.335 46.6758 74.2453 46.601 74.142 46.5499C74.0388 46.4988 73.925 46.4728 73.8098 46.474H64.971C64.5782 46.4715 64.1955 46.5979 63.8815 46.8339C63.5675 47.0698 63.3395 47.4023 63.2326 47.7802L56.0514 74.5795C56.0178 74.6896 56.0105 74.8062 56.0303 74.9197C56.0501 75.0332 56.0964 75.1404 56.1654 75.2326C56.2343 75.3249 56.3241 75.3996 56.4273 75.4507C56.5306 75.5018 56.6444 75.5278 56.7596 75.5267H65.5977ZM29.9769 37.9225C28.1458 37.9263 26.3667 38.5319 24.9137 39.646C23.4606 40.7602 22.414 42.3212 21.9352 44.0886L13.1341 76.9332C12.9063 77.7728 12.875 78.6535 13.0427 79.5071C13.2103 80.3607 13.5724 81.1642 14.1007 81.8552C14.6291 82.5463 15.3096 83.1063 16.0894 83.4918C16.8692 83.8773 17.7274 84.078 18.5973 84.0782H33.7243C35.5555 84.0744 37.3346 83.4687 38.7878 82.3546C40.241 81.2404 41.2877 79.6795 41.7668 77.9121L47.1078 57.9848H32.2507L30.0433 66.2158H36.0479L33.9023 74.2213C33.7956 74.5993 33.5677 74.9319 33.2537 75.1679C32.9396 75.4038 32.5568 75.5302 32.164 75.5275H23.3259C23.2107 75.5286 23.0969 75.5025 22.9936 75.4515C22.8904 75.4004 22.8006 75.3257 22.7317 75.2334C22.6627 75.1411 22.6164 75.0339 22.5966 74.9204C22.5768 74.807 22.5841 74.6904 22.6177 74.5802L29.7989 47.7809C29.9057 47.4036 30.133 47.0717 30.4463 46.8358C30.7595 46.5999 31.1414 46.4731 31.5335 46.4747H49.227L51.5181 37.9232L29.9769 37.9225ZM94.4438 57.9833L97.1784 47.7787C97.2851 47.4006 97.513 47.0681 97.827 46.8321C98.1411 46.5961 98.5239 46.4698 98.9167 46.4725H107.755C107.87 46.4713 107.984 46.4974 108.087 46.5485C108.19 46.5996 108.28 46.6743 108.349 46.7666C108.418 46.8588 108.464 46.966 108.484 47.0795C108.504 47.193 108.497 47.3095 108.463 47.4197L105.982 56.6771C105.875 57.0551 105.647 57.3875 105.333 57.6235C105.019 57.8594 104.636 57.9858 104.243 57.9833H94.4438ZM102.815 84.0775H112.038L104.818 66.2158H105.89C107.721 66.212 109.5 65.6065 110.953 64.4925C112.406 63.3784 113.453 61.8177 113.932 60.0505L117.947 45.0682C118.174 44.2287 118.206 43.3479 118.038 42.4943C117.87 41.6407 117.508 40.8373 116.98 40.1462C116.452 39.4552 115.771 38.8952 114.991 38.5097C114.211 38.1241 113.353 37.9235 112.483 37.9232H97.3564C95.5252 37.9271 93.7461 38.5327 92.2929 39.6469C90.8397 40.761 89.793 42.3219 89.3139 44.0893L78.5987 84.079H87.4519L93.5765 61.2202L102.815 84.0775ZM125.507 67.5212C125.614 67.1438 125.842 66.8118 126.156 66.576C126.469 66.3403 126.852 66.2137 127.244 66.2158H142.159L144.364 57.9856H128.06L130.795 47.7809C130.902 47.4029 131.13 47.0704 131.444 46.8344C131.758 46.5985 132.141 46.4721 132.534 46.4747H147.449L149.74 37.9232H130.971C129.14 37.927 127.361 38.5325 125.907 39.6467C124.454 40.7609 123.408 42.3219 122.929 44.0893L114.131 76.9332C113.903 77.7727 113.871 78.6534 114.039 79.5069C114.207 80.3605 114.569 81.1639 115.097 81.8549C115.625 82.546 116.306 83.106 117.085 83.4915C117.865 83.8771 118.723 84.0779 119.593 84.0782H138.145L140.437 75.5267H124.322C124.206 75.5278 124.093 75.5018 123.989 75.4507C123.886 75.3996 123.796 75.3249 123.727 75.2326C123.658 75.1404 123.612 75.0332 123.592 74.9197C123.573 74.8062 123.58 74.6896 123.613 74.5795L125.507 67.5212Z" fill="black"/>
</svg>
