<svg xmlns="http://www.w3.org/2000/svg" width="30.621" height="30.621" viewBox="0 0 30.621 30.621">
  <g id="imagePlaceholder" transform="translate(1.5 1.5)">
    <path id="Path_4542" data-name="Path 4542" d="M7.5,4.5h21a3,3,0,0,1,3,3v21a3,3,0,0,1-3,3H7.5a3,3,0,0,1-3-3V7.5a3,3,0,0,1,3-3Z" transform="translate(-4.5 -4.5)" fill="none" stroke="#ece2d3" stroke-linecap="round" stroke-linejoin="round" stroke-width="3"/>
    <path id="Path_4543" data-name="Path 4543" d="M15,12.75a2.25,2.25,0,1,1-2.25-2.25A2.25,2.25,0,0,1,15,12.75Z" transform="translate(-4.5 -4.5)" fill="none" stroke="#ece2d3" stroke-linecap="round" stroke-linejoin="round" stroke-width="3"/>
    <path id="Path_4544" data-name="Path 4544" d="M31.5,22.5,24,15,7.5,31.5" transform="translate(-4.5 -4.5)" fill="none" stroke="#ece2d3" stroke-linecap="round" stroke-linejoin="round" stroke-width="3"/>
  </g>
</svg>
