<svg xmlns="http://www.w3.org/2000/svg" width="21.13" height="21.13" viewBox="0 0 21.13 21.13">
  <g id="inactive" transform="translate(0)">
    <path id="Path_4319" data-name="Path 4319" d="M20.259,19.11l-2.677-2.677,2.677-2.677a.812.812,0,0,0-1.148-1.148l-2.677,2.677-2.677-2.677a.812.812,0,0,0-1.148,1.148l2.677,2.677L12.609,19.11a.785.785,0,0,0,0,1.148.806.806,0,0,0,1.148,0l2.677-2.677,2.677,2.677a.815.815,0,0,0,1.148,0A.806.806,0,0,0,20.259,19.11Z" transform="translate(-5.869 -5.868)" fill="#eb0f59"/>
    <path id="Path_4320" data-name="Path 4320" d="M13.94,4.8A9.139,9.139,0,1,1,7.474,7.474,9.082,9.082,0,0,1,13.94,4.8m0-1.422A10.565,10.565,0,1,0,24.5,13.94,10.563,10.563,0,0,0,13.94,3.375Z" transform="translate(-3.375 -3.375)" fill="#eb0f59"/>
  </g>
</svg>
