<svg xmlns="http://www.w3.org/2000/svg" width="22.424" height="18.853" viewBox="0 0 22.424 18.853">
  <g id="manage_guide" transform="translate(-28.855 -294.001)">
    <path id="Icon_awesome-user" data-name="Icon awesome-user" d="M8.248,9.427A4.713,4.713,0,1,0,3.535,4.714,4.713,4.713,0,0,0,8.248,9.427Zm3.3,1.178h-.615a6.41,6.41,0,0,1-5.369,0H4.949A4.95,4.95,0,0,0,0,15.553v1.533a1.768,1.768,0,0,0,1.768,1.768H14.729A1.768,1.768,0,0,0,16.5,17.086V15.554a4.95,4.95,0,0,0-4.951-4.949Z" transform="translate(28.855 294)" fill="#fff"/>
    <line id="Line_1" data-name="Line 1" y2="10" transform="translate(44.5 295.5)" fill="none" stroke="#fff" stroke-width="1"/>
    <path id="Path_4527" data-name="Path 4527" d="M1376.5,8059.5l5.619-3.13-5.619-2.255Z" transform="translate(-1332 -7759)" fill="rgba(255,255,255,0)" stroke="#fff" stroke-width="1"/>
  </g>
</svg>
