<svg xmlns="http://www.w3.org/2000/svg" width="20.965" height="20.326" viewBox="0 0 20.965 20.326">
  <path id="manage-Customers-Agency" d="M19.531,8.974v9.437a1.114,1.114,0,0,1-1.11,1.11h-6.65a1.366,1.366,0,0,0,.044-.294V19.2a1.13,1.13,0,0,0-.208-.682H18.34a.193.193,0,0,0,.135-.058.191.191,0,0,0,.058-.136V9a4.555,4.555,0,0,0,1-.026Zm-7.91,1.8a.261.261,0,0,1-.169.1.258.258,0,0,1-.192-.047h0a.259.259,0,0,1-.1-.168h0a.257.257,0,0,1,.047-.188l.9-1.229a.256.256,0,0,1,.462.114h0a.26.26,0,0,1-.047.189ZM14.36,15.04a.257.257,0,0,1-.318-.174h0a.257.257,0,0,1,.173-.319c.434-.134.884-.265,1.322-.388a.26.26,0,0,1,.317.176h0a.259.259,0,0,1-.175.317l-1.319.386ZM14,13.759a.258.258,0,0,1-.332-.342.255.255,0,0,1,.141-.138c.393-.158.793-.327,1.19-.476a.262.262,0,0,1,.194,0,.258.258,0,0,1,.138.14h0a.261.261,0,0,1,0,.194.258.258,0,0,1-.141.138c-.389.144-.8.315-1.188.475Zm-.545-1.126a.259.259,0,0,1-.4-.269h0a.259.259,0,0,1,.111-.161c.388-.233.767-.531,1.155-.76a.255.255,0,0,1,.187-.033h0a.259.259,0,0,1,.16.109v.006a.259.259,0,0,1-.077.355l-1.148.755Zm-.873-1a.259.259,0,1,1-.359-.372l1.022-.989a.259.259,0,0,1,.362.009h0a.258.258,0,0,1-.009.362l-1.019.986ZM6.056,16.69a1.032,1.032,0,0,0,.015.479A1.7,1.7,0,0,0,7.3,18.433c.346.03.845-.328,1.168-.533a.218.218,0,0,1,.133-.03c.139.013.178.13.235.233.119.214.237.429.363.641a5.69,5.69,0,0,0,.336.512h0l.013.018c.012.017.03.042.05.067h0c.069.095.14.193.214.28a1.192,1.192,0,0,0,.21.207.177.177,0,0,0,.143.038c.133-.031.33-.369.387-.5a.538.538,0,0,0,.047-.158.63.63,0,0,0-.09-.015h0c-.534-.063-.5-.33-.566-.694-.012-.053-.025-.041-.086-.07a.513.513,0,0,1-.214-.17.961.961,0,0,1-.154-.513c-.027-.484.086-.466.458-.614a6.334,6.334,0,0,1,1.366-.384,7.054,7.054,0,0,1,1.058-.079A7.845,7.845,0,0,1,10.505,14.8a8.29,8.29,0,0,1-1.259-2.4,7.3,7.3,0,0,1-.726,1.547c-.412.658-2.353,2.267-2.463,2.74h0Zm4.266-2.917a1.337,1.337,0,0,1,.645-.1,1.033,1.033,0,0,1,.974,1.142,2.03,2.03,0,0,1-.246.759c.121.117.25.233.388.353a4.818,4.818,0,0,0,.6.448,2.964,2.964,0,0,0,.545.273c.238-.047.211-.371.188-.563a3.706,3.706,0,0,0-.38-1.114,9.521,9.521,0,0,0-.859-1.386,10.636,10.636,0,0,0-1.052-1.23,6.152,6.152,0,0,0-.681-.592A1.72,1.72,0,0,0,9.69,11.4c-.117,0-.137.044-.145.157a1.894,1.894,0,0,0,.078.623,5.458,5.458,0,0,0,.378.97c.068.144.321.637.321.624Zm1.826,3.344a5.843,5.843,0,0,0-2.235.506v.138c.005.07.028.247.1.284.038.018.078.036.115.057a.381.381,0,0,1,.169.15h0c.1.164.034.5.259.529h0c.351.04.476.206.475.421a1.782,1.782,0,0,1-.585,1.024.554.554,0,0,1-.215.092.61.61,0,0,1-.461-.127,1.692,1.692,0,0,1-.332-.329,7.6,7.6,0,0,1-.616-.887c-.107-.18-.219-.381-.332-.585h0c-.084.053-.165.109-.249.162a1.453,1.453,0,0,1-1,.313,2.125,2.125,0,0,1-1.6-1.665,1.424,1.424,0,0,1,0-.612c.244-1.031,2.52-2.133,3.334-4.727h0c.1-.328.2-.817.6-.868a1.333,1.333,0,0,1,.789.218h0a5.407,5.407,0,0,1,1.049.839,11.045,11.045,0,0,1,1.1,1.29,9.887,9.887,0,0,1,.908,1.471,4.087,4.087,0,0,1,.412,1.229,1.631,1.631,0,0,1,0,.428c-.059.418-.255.581-.7.632-.286.032-.695.012-1,.022Zm-5.5,2.4H2.528a1.114,1.114,0,0,1-1.11-1.11V8.984a4.8,4.8,0,0,0,1,.061v9.284a.194.194,0,0,0,.193.193H5.4a3.086,3.086,0,0,0,.293.353,2.631,2.631,0,0,0,.958.645ZM.029,5.182,1.447.642A.92.92,0,0,1,2.4,0H18.44a1.013,1.013,0,0,1,.95.637l1.525,4.539a3.5,3.5,0,0,1,.034.912,2.006,2.006,0,0,1-.591,1.421,2.389,2.389,0,0,1-2.271.4,4.152,4.152,0,0,1-.9-.4,2.032,2.032,0,0,1-.362-.49,2.032,2.032,0,0,1-.362.49,2.9,2.9,0,0,1-3.508,0,2.022,2.022,0,0,1-.362-.49,2.032,2.032,0,0,1-.362.49,2.9,2.9,0,0,1-3.508,0,2.032,2.032,0,0,1-.362-.49A2.032,2.032,0,0,1,8,7.509a2.9,2.9,0,0,1-3.508,0,2.032,2.032,0,0,1-.362-.49,2.032,2.032,0,0,1-.362.49,3.4,3.4,0,0,1-1.208.515A2.383,2.383,0,0,1,.591,7.509,2.006,2.006,0,0,1,0,6.088Z" transform="translate(0 0.003)" fill="#fff"/>
</svg>
