<svg xmlns="http://www.w3.org/2000/svg" width="19.91" height="19.169" viewBox="0 0 19.91 19.169">
  <path id="manage-Enquiries" d="M15.477,10.354a4.431,4.431,0,1,1-4.429,4.43,4.431,4.431,0,0,1,4.429-4.43ZM11.6.7a.734.734,0,0,1,.8-.65.74.74,0,0,1,.8.656V3.752a.739.739,0,0,1-.8.656.739.739,0,0,1-.8-.656ZM4.428.7a.734.734,0,0,1,.8-.648.741.741,0,0,1,.8.656V3.752a.746.746,0,0,1-.8.664.739.739,0,0,1-.8-.656Zm5.926,17.476h-8.7A1.665,1.665,0,0,1,0,16.515V3.37A1.667,1.667,0,0,1,1.659,1.711H3.188V3.752a1.821,1.821,0,0,0,.69,1.418,2.147,2.147,0,0,0,2.7,0,1.821,1.821,0,0,0,.69-1.418V1.711h3.09V3.752a1.819,1.819,0,0,0,.689,1.418,2.148,2.148,0,0,0,2.7,0,1.824,1.824,0,0,0,.689-1.418V1.711h1.6A1.665,1.665,0,0,1,17.7,3.37V9.055a6.212,6.212,0,0,0-.708-.227V6.513H.708v9.649a1.309,1.309,0,0,0,1.3,1.3H9.951a6.5,6.5,0,0,0,.405.708ZM3.188,9.153l.561.527L4.9,8.512c.118-.122.194-.219.342-.066l.486.486c.162.162.147.246,0,.392l-1.7,1.667c-.311.306-.258.324-.575.011L2.383,9.944A.138.138,0,0,1,2.4,9.729l.556-.575C3.034,9.066,3.1,9.071,3.188,9.153ZM7.777,8.42h2.378a.3.3,0,0,1,.3.3V10.7a.306.306,0,0,1-.3.3H7.777a.3.3,0,0,1-.3-.3V8.721a.3.3,0,0,1,.3-.3Zm4.794,0h2.378a.306.306,0,0,1,.293.227,6.122,6.122,0,0,0-2.973.9V8.721a.3.3,0,0,1,.3-.3Zm-4.794,4.2H9.721a6.126,6.126,0,0,0-.386,2.161,4.051,4.051,0,0,0,.015.421H7.777a.3.3,0,0,1-.3-.3V12.927a.3.3,0,0,1,.3-.3Zm-4.792,0H5.363a.3.3,0,0,1,.308.3V14.9a.306.306,0,0,1-.308.3H2.986a.3.3,0,0,1-.3-.3V12.927a.3.3,0,0,1,.3-.3Zm11.877-.07H15.4a.181.181,0,0,1,.181.181v2.087H17.5a.181.181,0,0,1,.181.18v.543a.181.181,0,0,1-.181.18H14.683V12.736a.181.181,0,0,1,.18-.181Zm.614-1.194a3.425,3.425,0,1,1-3.422,3.425,3.425,3.425,0,0,1,3.422-3.425Z" transform="translate(0 -0.047)" fill="#fff" fill-rule="evenodd"/>
</svg>
