<svg xmlns="http://www.w3.org/2000/svg" width="18.648" height="18.537" viewBox="0 0 18.648 18.537">
  <path id="manage-categories-icon" d="M17.166,11.42a.39.39,0,0,0-.56,0l-.427.419a3.081,3.081,0,0,0-.363-.2,3.65,3.65,0,0,0-.387-.152v-.648a.379.379,0,0,0-.114-.281.386.386,0,0,0-.281-.114h-.821a.387.387,0,0,0-.276.114.376.376,0,0,0-.117.281v.607a2.836,2.836,0,0,0-.4.123,2.8,2.8,0,0,0-.367.162l-.474-.468a.361.361,0,0,0-.273-.118.393.393,0,0,0-.281.118l-.574.571a.383.383,0,0,0-.12.281.375.375,0,0,0,.12.279l.425.428a2.677,2.677,0,0,0-.19.369,3.33,3.33,0,0,0-.152.386h-.66a.378.378,0,0,0-.281.115.384.384,0,0,0-.121.281V14.8a.392.392,0,0,0,.115.276.379.379,0,0,0,.281.117h.606a2.96,2.96,0,0,0,.121.4,3.983,3.983,0,0,0,.17.375l-.466.464a.361.361,0,0,0-.118.275.381.381,0,0,0,.118.279l.577.584a.409.409,0,0,0,.56,0l.428-.434a2.753,2.753,0,0,0,.361.2,3.462,3.462,0,0,0,.387.152v.654a.389.389,0,0,0,.4.395h.823a.384.384,0,0,0,.275-.114.378.378,0,0,0,.118-.281v-.6a3.1,3.1,0,0,0,.4-.121c.129-.052.255-.108.376-.17l.464.466a.384.384,0,0,0,.554,0l.583-.577a.4.4,0,0,0,.111-.281.39.39,0,0,0-.111-.279l-.433-.428a2.945,2.945,0,0,0,.2-.361,3.773,3.773,0,0,0,.152-.387h.656a.393.393,0,0,0,.39-.4v-.823a.386.386,0,0,0-.115-.276.376.376,0,0,0-.279-.117h-.607a3.478,3.478,0,0,0-.123-.4,2.978,2.978,0,0,0-.17-.372l.466-.472a.361.361,0,0,0,.118-.273A.382.382,0,0,0,17.736,12l-.577-.575ZM.759,10.25H7.5a.759.759,0,0,1,.759.759v6.706a.759.759,0,0,1-.759.759H.759A.759.759,0,0,1,0,17.715v-6.7a.759.759,0,0,1,.759-.759ZM11.155,0H17.89a.759.759,0,0,1,.759.759V7.466a.759.759,0,0,1-.759.759H11.155a.759.759,0,0,1-.759-.759V.759A.759.759,0,0,1,11.155,0ZM.759,0H7.5a.759.759,0,0,1,.759.759V7.466a.759.759,0,0,1-.759.759H.759A.759.759,0,0,1,0,7.466V.759A.759.759,0,0,1,.759,0ZM14.521,12.881a1.629,1.629,0,0,1,.628.124,1.694,1.694,0,0,1,.513.352,1.67,1.67,0,0,1,.343.513,1.62,1.62,0,0,1-.343,1.768,1.67,1.67,0,0,1-.513.345,1.612,1.612,0,0,1-1.768-2.626,1.67,1.67,0,0,1,.512-.345,1.635,1.635,0,0,1,.628-.124Z" fill="#fff"/>
</svg>
