<svg xmlns="http://www.w3.org/2000/svg" width="18.223" height="18.853" viewBox="0 0 18.223 18.853">
  <g id="multi-picklist" transform="translate(-2.801 -2)">
    <path id="Path_4540" data-name="Path 4540" d="M25.939,2H15.885A1.911,1.911,0,0,0,14,3.885V4.2a.289.289,0,0,0,.314.314h9.112A1.911,1.911,0,0,1,25.311,6.4v9.74a.289.289,0,0,0,.314.314h.314a1.911,1.911,0,0,0,1.885-1.885V3.885A1.911,1.911,0,0,0,25.939,2Z" transform="translate(-6.801)" fill="#fff"/>
    <path id="Path_4541" data-name="Path 4541" d="M14.739,13.2H4.685A1.911,1.911,0,0,0,2.8,15.085V25.768a1.911,1.911,0,0,0,1.885,1.885H14.739a1.911,1.911,0,0,0,1.885-1.885V15.085A1.911,1.911,0,0,0,14.739,13.2ZM7.2,24.511a.62.62,0,0,1-.628.628h-.63a.62.62,0,0,1-.628-.628v-.628a.62.62,0,0,1,.628-.628H6.57a.62.62,0,0,1,.628.628Zm0-3.77a.62.62,0,0,1-.628.628h-.63a.62.62,0,0,1-.628-.628v-.628a.62.62,0,0,1,.628-.628H6.57a.62.62,0,0,1,.628.628Zm0-3.77a.62.62,0,0,1-.628.628h-.63a.62.62,0,0,1-.628-.628v-.628a.62.62,0,0,1,.628-.628H6.57a.62.62,0,0,1,.628.628Zm6.912,7.541a.62.62,0,0,1-.628.628H9.123a.62.62,0,0,1-.628-.628v-.628a.62.62,0,0,1,.628-.628h4.359a.62.62,0,0,1,.628.628Zm0-3.77a.62.62,0,0,1-.628.628H9.123a.62.62,0,0,1-.628-.628v-.628a.62.62,0,0,1,.628-.628h4.359a.62.62,0,0,1,.628.628Zm0-3.77a.62.62,0,0,1-.628.628H9.123a.62.62,0,0,1-.628-.628v-.628a.62.62,0,0,1,.628-.628h4.359a.62.62,0,0,1,.628.628Z" transform="translate(0 -6.801)" fill="#fff"/>
  </g>
</svg>
