<svg xmlns="http://www.w3.org/2000/svg" width="17.009" height="17.004" viewBox="0 0 17.009 17.004">
  <g id="pending-icon" transform="translate(0 -0.068)">
    <g id="Group_1" data-name="Group 1" transform="translate(0 0.068)">
      <path id="Path_3" data-name="Path 3" d="M36.976,78.56a.753.753,0,0,0,1.011-.215c.181-.254.361-.507.577-.758a.717.717,0,1,0-1.084-.938,9.091,9.091,0,0,0-.723.938A.711.711,0,0,0,36.976,78.56Z" transform="translate(-35.374 -73.754)"/>
      <path id="Path_4" data-name="Path 4" d="M229.985,1.475a6.375,6.375,0,0,1,2.026.327.759.759,0,0,0,.9-.434.732.732,0,0,0-.469-.9,7.893,7.893,0,0,0-2.422-.4.7.7,0,0,0-.723.688A.69.69,0,0,0,229.985,1.475Z" transform="translate(-221.331 -0.068)"/>
      <path id="Path_5" data-name="Path 5" d="M432.794,140a7.082,7.082,0,0,1,.469,1.915s.042.806.8.688a.727.727,0,0,0,.65-.831,8.408,8.408,0,0,0-.577-2.314.722.722,0,0,0-1.338.542Z" transform="translate(-417.704 -134.181)"/>
      <path id="Path_6" data-name="Path 6" d="M350.8,40.389a7.062,7.062,0,0,1,1.519,1.411.712.712,0,0,0,.977.108A.737.737,0,0,0,353.4,40.9a8.989,8.989,0,0,0-1.807-1.665.7.7,0,0,0-.8,1.157Z" transform="translate(-338.315 -37.751)"/>
      <path id="Path_7" data-name="Path 7" d="M105.359,10.715a7.266,7.266,0,0,1,1.88-.831.711.711,0,1,0-.361-1.376,8.221,8.221,0,0,0-2.242.977.7.7,0,0,0-.215.977A.734.734,0,0,0,105.359,10.715Z" transform="translate(-100.681 -8.188)"/>
      <path id="Path_8" data-name="Path 8" d="M16.281,267.677a.66.66,0,0,0-.831.542c-.073.327-.3,1.088-.3,1.161a7.1,7.1,0,0,1-12.462,1.508l1.338.3a.7.7,0,1,0,.288-1.373L1.5,269.2a.753.753,0,0,0-.869.542l-.615,2.857a.7.7,0,0,0,.542.831.792.792,0,0,0,.869-.577l.215-.98a8.529,8.529,0,0,0,14.933-2.235c.035-.09.2-.848.254-1.122A.662.662,0,0,0,16.281,267.677Z" transform="translate(0 -258.353)"/>
      <path id="Path_9" data-name="Path 9" d="M144.523,87.855h3.333a.751.751,0,0,0,.723-.723V82.191a.723.723,0,1,0-1.446,0V86.41h-2.61a.723.723,0,1,0,0,1.446Z" transform="translate(-138.803 -78.639)"/>
    </g>
  </g>
</svg>
