<svg width="87" height="87" viewBox="0 0 87 87" fill="none" xmlns="http://www.w3.org/2000/svg">
<path d="M65.2517 25.955C65.0342 25.9188 64.7805 25.9188 64.563 25.955C59.5605 25.7738 55.573 21.6775 55.573 16.6025C55.573 11.4188 59.7417 7.25 64.9254 7.25C70.1092 7.25 74.2779 11.455 74.2779 16.6025C74.2417 21.6775 70.2542 25.7738 65.2517 25.955Z" stroke="black" stroke-width="5" stroke-linecap="round" stroke-linejoin="round"/>
<path d="M61.5157 52.3456C66.4819 53.1793 71.9557 52.3093 75.7982 49.7356C80.9094 46.3281 80.9094 40.7456 75.7982 37.3381C71.9194 34.7643 66.3731 33.8943 61.4069 34.7643" stroke="black" stroke-width="5" stroke-linecap="round" stroke-linejoin="round"/>
<path d="M21.6372 25.955C21.8547 25.9188 22.1085 25.9188 22.326 25.955C27.3285 25.7738 31.316 21.6775 31.316 16.6025C31.316 11.4188 27.1472 7.25 21.9635 7.25C16.7797 7.25 12.611 11.455 12.611 16.6025C12.6472 21.6775 16.6347 25.7738 21.6372 25.955Z" stroke="black" stroke-width="5" stroke-linecap="round" stroke-linejoin="round"/>
<path d="M25.3744 52.3456C20.4081 53.1793 14.9344 52.3093 11.0919 49.7356C5.98064 46.3281 5.98064 40.7456 11.0919 37.3381C14.9706 34.7643 20.5169 33.8943 25.4831 34.7643" stroke="black" stroke-width="5" stroke-linecap="round" stroke-linejoin="round"/>
<path d="M43.5016 53.0341C43.2841 52.9979 43.0304 52.9979 42.8129 53.0341C37.8104 52.8529 33.8229 48.7566 33.8229 43.6816C33.8229 38.4979 37.9916 34.3291 43.1754 34.3291C48.3591 34.3291 52.5279 38.5341 52.5279 43.6816C52.4917 48.7566 48.5041 52.8891 43.5016 53.0341Z" stroke="black" stroke-width="5" stroke-linecap="round" stroke-linejoin="round"/>
<path d="M32.9552 64.4534C27.8439 67.8609 27.8439 73.4434 32.9552 76.8509C38.7552 80.7297 48.2527 80.7297 54.0527 76.8509C59.1639 73.4434 59.1639 67.8609 54.0527 64.4534C48.2889 60.6109 38.7552 60.6109 32.9552 64.4534Z" stroke="black" stroke-width="5" stroke-linecap="round" stroke-linejoin="round"/>
</svg>
