<svg xmlns="http://www.w3.org/2000/svg" width="14.405" height="17.286" viewBox="0 0 14.405 17.286">
  <path id="reported" d="M20.255,5.364a17.72,17.72,0,0,1-2.233.189A17.982,17.982,0,0,1,14.353,5a18.726,18.726,0,0,0-3.786-.5c-2.638,0-3.534.545-3.628.6l-.189.131V21.786H8.911V13.764a13.656,13.656,0,0,1,1.661-.09,18.219,18.219,0,0,1,3.592.7,19.308,19.308,0,0,0,3.912.518,17.866,17.866,0,0,0,2.179-.18c.338-.041.63-.077.9-.122V5.229C20.93,5.274,20.593,5.324,20.255,5.364Z" transform="translate(-6.75 -4.5)" fill="#d91c49"/>
</svg>
