<svg xmlns="http://www.w3.org/2000/svg" width="17.814" height="17.813" viewBox="0 0 17.814 17.813">
  <path id="Icon_ionic-md-settings" data-name="Icon ionic-md-settings" d="M19.046,13.172a5.57,5.57,0,0,0,.045-.891c0-.312-.045-.579-.045-.891l1.913-1.47a.409.409,0,0,0,.091-.579L19.228,6.27a.444.444,0,0,0-.547-.178l-2.281.89a6.63,6.63,0,0,0-1.548-.891l-.319-2.36a.488.488,0,0,0-.456-.356h-3.64a.488.488,0,0,0-.455.356l-.364,2.36a7.713,7.713,0,0,0-1.549.891L5.791,6.091a.427.427,0,0,0-.547.178L3.422,9.343a.538.538,0,0,0,.091.579l1.959,1.469c0,.312-.045.579-.045.891s.045.579.045.891l-1.913,1.47a.409.409,0,0,0-.091.579L5.29,18.294a.444.444,0,0,0,.547.178l2.278-.891a6.629,6.629,0,0,0,1.548.891l.364,2.36a.442.442,0,0,0,.455.356h3.644a.488.488,0,0,0,.456-.356l.365-2.36a7.709,7.709,0,0,0,1.548-.891l2.278.891a.427.427,0,0,0,.547-.178l1.822-3.073a.537.537,0,0,0-.091-.579ZM12.259,15.4a3.134,3.134,0,1,1,2.245-.893A3.118,3.118,0,0,1,12.259,15.4Z" transform="translate(-3.375 -3.375)" fill="#fff"/>
</svg>
