<svg xmlns="http://www.w3.org/2000/svg" width="66" height="46.2" viewBox="0 0 66 46.2">
  <path id="users" d="M9.9,22.05a6.6,6.6,0,1,0-6.6-6.6A6.606,6.606,0,0,0,9.9,22.05Zm46.2,0a6.6,6.6,0,1,0-6.6-6.6A6.606,6.606,0,0,0,56.1,22.05Zm3.3,3.3H52.8a6.581,6.581,0,0,0-4.651,1.918A15.084,15.084,0,0,1,55.894,38.55H62.7a3.3,3.3,0,0,0,3.3-3.3v-3.3A6.606,6.606,0,0,0,59.4,25.35Zm-26.4,0A11.55,11.55,0,1,0,21.45,13.8,11.544,11.544,0,0,0,33,25.35Zm7.92,3.3h-.856a15.947,15.947,0,0,1-14.128,0H25.08A11.883,11.883,0,0,0,13.2,40.53V43.5a4.951,4.951,0,0,0,4.95,4.95h29.7A4.951,4.951,0,0,0,52.8,43.5V40.53A11.883,11.883,0,0,0,40.92,28.65ZM17.851,27.268A6.581,6.581,0,0,0,13.2,25.35H6.6A6.606,6.606,0,0,0,0,31.95v3.3a3.3,3.3,0,0,0,3.3,3.3h6.8A15.122,15.122,0,0,1,17.851,27.268Z" transform="translate(0 -2.25)" fill="#fff"/>
</svg>
