<svg width="196" height="196" viewBox="0 0 196 196" fill="none" xmlns="http://www.w3.org/2000/svg">
<path d="M87.7996 20.0068C93.4346 15.1885 102.663 15.1885 108.38 20.0068L121.283 31.1135C123.733 33.2368 128.306 34.9518 131.573 34.9518H145.456C154.113 34.9518 161.218 42.0568 161.218 50.7135V64.5968C161.218 67.7818 162.933 72.4368 165.056 74.8868L176.163 87.7902C180.981 93.4252 180.981 102.653 176.163 108.37L165.056 121.273C162.933 123.723 161.218 128.297 161.218 131.563V145.447C161.218 154.103 154.113 161.208 145.456 161.208H131.573C128.388 161.208 123.733 162.923 121.283 165.047L108.38 176.153C102.745 180.972 93.5163 180.972 87.7996 176.153L74.8962 165.047C72.4462 162.923 67.8729 161.208 64.6062 161.208H50.4779C41.8212 161.208 34.7162 154.103 34.7162 145.447V131.482C34.7162 128.297 33.0012 123.723 30.9596 121.273L19.9346 108.288C15.1979 102.653 15.1979 93.5068 19.9346 87.8718L30.9596 74.8868C33.0012 72.4368 34.7162 67.8635 34.7162 64.6785V50.6318C34.7162 41.9751 41.8212 34.8701 50.4779 34.8701H64.6062C67.7912 34.8701 72.4462 33.1551 74.8962 31.0318L87.7996 20.0068Z" fill="#5FB047"/>
<path d="M88.1226 123.886C86.4892 123.886 84.9376 123.233 83.7942 122.09L64.0309 102.326C61.6626 99.9579 61.6626 96.0379 64.0309 93.6696C66.3992 91.3013 70.3192 91.3013 72.6876 93.6696L88.1226 109.105L123.239 73.9879C125.608 71.6196 129.528 71.6196 131.896 73.9879C134.264 76.3563 134.264 80.2762 131.896 82.6446L92.4509 122.09C91.3076 123.233 89.7559 123.886 88.1226 123.886Z" fill="white"/>
</svg>
